# xmcd
#
# Track frame offsets: 
#        182
#        17987
#        36120
#        49590
#        65825
#        90822
#        106787
#        121355
#        138005
#        156010
#        168945
#        185127
#        200690
#
# Disc length: 2845 seconds
#
# Revision: 4
# Processed by: cddbd v1.5.2PL0 Copyright (c) Steve Scherf et al.
# Submitted via: ExactAudioCopy v1.1
#
DISCID=a80b1b0d
DTITLE=Aretha Franklin - 30 Greatest Hits - Disc 2
DYEAR=1985
DGENRE=Soul
TTITLE0=Call Me
TTITLE1=Spirit In The Dark
TTITLE2=Don't Play That Song
TTITLE3=You're All I Need To Get By
TTITLE4=Bridge Over Troubled Water
TTITLE5=Spanish Harlem
TTITLE6=Rock Steady
TTITLE7=Oh Me Oh My (I'm A Fool For You Baby)
TTITLE8=Day Dreaming
TTITLE9=Wholy Holy
TTITLE10=Angel
TTITLE11=Until You Come Back To Me (That's What I'm Gonna Do)
TTITLE12=I'm In Love
EXTD=YEAR: 1985
EXTT0=
EXTT1=
EXTT2=
EXTT3=
EXTT4=
EXTT5=
EXTT6=
EXTT7=
EXTT8=
EXTT9=
EXTT10=
EXTT11=
EXTT12=
PLAYORDER=
